HIERARCHY
ROOT Hips
{
  OFFSET 5.84602e-005 68.8428 3.50346
  CHANNELS 6 Xposition Yposition Zposition Zrotation Xrotation Yrotation
  JOINT Spine
  {
    OFFSET 0 8.597 -4.6522
    CHANNELS 3 Zrotation Xrotation Yrotation
    JOINT Spine1
    {
      OFFSET 0 7.8454 0.4098
      CHANNELS 3 Zrotation Xrotation Yrotation
      JOINT Spine2
      {
        OFFSET 0 9.7078 -2.1609
        CHANNELS 3 Zrotation Xrotation Yrotation
        JOINT Neck
        {
          OFFSET 0 21.8761 -0.4549
          CHANNELS 3 Zrotation Xrotation Yrotation
          JOINT Head
          {
            OFFSET 0 12.3537 3.3602
            CHANNELS 3 Zrotation Xrotation Yrotation
            End Site
            {
              OFFSET 0.0001 18.9506 0.5657
            }
          }
        }
        JOINT LeftShoulder
        {
          OFFSET 2.2086 21.1115 7.2329
          CHANNELS 3 Zrotation Xrotation Yrotation
          JOINT LeftArm
          {
            OFFSET 13.1193 3.0282 -4.8998
            CHANNELS 3 Zrotation Xrotation Yrotation
            JOINT LeftForeArm
            {
              OFFSET 27.4081 -0.0973053 -0.2375
              CHANNELS 3 Zrotation Xrotation Yrotation
              JOINT LeftHand
              {
                OFFSET 22.8641 0.0662994 -0.1369
                CHANNELS 3 Zrotation Xrotation Yrotation
                JOINT LeftHandIndex1
                {
                  OFFSET 8.8614 0.775009 2.4612
                  CHANNELS 3 Zrotation Xrotation Yrotation
                  JOINT LeftHandIndex2
                  {
                    OFFSET 3.3146 -0.808304 0.5841
                    CHANNELS 3 Zrotation Xrotation Yrotation
                    JOINT LeftHandIndex3
                    {
                      OFFSET 2.2628 -0.552002 0.3989
                      CHANNELS 3 Zrotation Xrotation Yrotation
                      End Site
                      {
                        OFFSET 1.6102 -0.4807 0.2612
                      }
                    }
                  }
                }
                JOINT LeftHandMiddle1
                {
                  OFFSET 8.9937 0.895004 0.2143
                  CHANNELS 3 Zrotation Xrotation Yrotation
                  JOINT LeftHandMiddle2
                  {
                    OFFSET 4.0984 0.0113983 -0.0242
                    CHANNELS 3 Zrotation Xrotation Yrotation
                    JOINT LeftHandMiddle3
                    {
                      OFFSET 2.2716 0.00689697 -0.0138001
                      CHANNELS 3 Zrotation Xrotation Yrotation
                      End Site
                      {
                        OFFSET 2.0404 -0.1441 0.0027
                      }
                    }
                  }
                }
                JOINT LeftHandRing1
                {
                  OFFSET 8.5234 0.597198 -2.0164
                  CHANNELS 3 Zrotation Xrotation Yrotation
                  JOINT LeftHandRing2
                  {
                    OFFSET 3.7188 -0.188293 -0.2328
                    CHANNELS 3 Zrotation Xrotation Yrotation
                    JOINT LeftHandRing3
                    {
                      OFFSET 2.1191 -0.106598 -0.1332
                      CHANNELS 3 Zrotation Xrotation Yrotation
                      End Site
                      {
                        OFFSET 1.8737 -0.2304 -0.0886
                      }
                    }
                  }
                }
                JOINT LeftHandPinky1
                {
                  OFFSET 7.9094 -0.601089 -3.4825
                  CHANNELS 3 Zrotation Xrotation Yrotation
                  JOINT LeftHandPinky2
                  {
                    OFFSET 2.2874 -0.477005 -0.6314
                    CHANNELS 3 Zrotation Xrotation Yrotation
                    JOINT LeftHandPinky3
                    {
                      OFFSET 1.6774 -0.349396 -0.4633
                      CHANNELS 3 Zrotation Xrotation Yrotation
                      End Site
                      {
                        OFFSET 1.4888 -0.4091 -0.3416
                      }
                    }
                  }
                }
                JOINT LeftHandThumb1
                {
                  OFFSET 1.833 -1.3875 1.3896
                  CHANNELS 3 Zrotation Xrotation Yrotation
                  JOINT LeftHandThumb2
                  {
                    OFFSET 3.4129 -1.121 2.5732
                    CHANNELS 3 Zrotation Xrotation Yrotation
                    JOINT LeftHandThumb3
                    {
                      OFFSET 2.2474 -0.804199 1.6192
                      CHANNELS 3 Zrotation Xrotation Yrotation
                      End Site
                      {
                        OFFSET 1.6527 -0.5689 1.1317
                      }
                    }
                  }
                }
              }
            }
          }
        }
        JOINT RightShoulder
        {
          OFFSET -2.2086 21.1115 7.2329
          CHANNELS 3 Zrotation Xrotation Yrotation
          JOINT RightArm
          {
            OFFSET -13.1216 3.0287 -4.9007
            CHANNELS 3 Zrotation Xrotation Yrotation
            JOINT RightForeArm
            {
              OFFSET -27.4081 -0.0973053 -0.2375
              CHANNELS 3 Zrotation Xrotation Yrotation
              JOINT RightHand
              {
                OFFSET -22.8641 0.0664063 -0.1369
                CHANNELS 3 Zrotation Xrotation Yrotation
                JOINT RightHandIndex1
                {
                  OFFSET -8.8614 0.774994 2.4612
                  CHANNELS 3 Zrotation Xrotation Yrotation
                  JOINT RightHandIndex2
                  {
                    OFFSET -3.3146 -0.808304 0.5841
                    CHANNELS 3 Zrotation Xrotation Yrotation
                    JOINT RightHandIndex3
                    {
                      OFFSET -2.2628 -0.552002 0.3989
                      CHANNELS 3 Zrotation Xrotation Yrotation
                      End Site
                      {
                        OFFSET -1.6102 -0.4807 0.2612
                      }
                    }
                  }
                }
                JOINT RightHandMiddle1
                {
                  OFFSET -8.9937 0.894989 0.2143
                  CHANNELS 3 Zrotation Xrotation Yrotation
                  JOINT RightHandMiddle2
                  {
                    OFFSET -4.0984 0.0113983 -0.0242
                    CHANNELS 3 Zrotation Xrotation Yrotation
                    JOINT RightHandMiddle3
                    {
                      OFFSET -2.2716 0.00691223 -0.0138001
                      CHANNELS 3 Zrotation Xrotation Yrotation
                      End Site
                      {
                        OFFSET -2.0404 -0.1441 0.0027
                      }
                    }
                  }
                }
                JOINT RightHandRing1
                {
                  OFFSET -8.5234 0.597198 -2.0164
                  CHANNELS 3 Zrotation Xrotation Yrotation
                  JOINT RightHandRing2
                  {
                    OFFSET -3.7188 -0.188309 -0.2328
                    CHANNELS 3 Zrotation Xrotation Yrotation
                    JOINT RightHandRing3
                    {
                      OFFSET -2.1191 -0.106598 -0.1332
                      CHANNELS 3 Zrotation Xrotation Yrotation
                      End Site
                      {
                        OFFSET -1.8737 -0.2304 -0.0886
                      }
                    }
                  }
                }
                JOINT RightHandPinky1
                {
                  OFFSET -7.9094 -0.601105 -3.4825
                  CHANNELS 3 Zrotation Xrotation Yrotation
                  JOINT RightHandPinky2
                  {
                    OFFSET -2.2874 -0.477005 -0.6314
                    CHANNELS 3 Zrotation Xrotation Yrotation
                    JOINT RightHandPinky3
                    {
                      OFFSET -1.6774 -0.349396 -0.4633
                      CHANNELS 3 Zrotation Xrotation Yrotation
                      End Site
                      {
                        OFFSET -1.4888 -0.4091 -0.3416
                      }
                    }
                  }
                }
                JOINT RightHandThumb1
                {
                  OFFSET -1.833 -1.38751 1.3896
                  CHANNELS 3 Zrotation Xrotation Yrotation
                  JOINT RightHandThumb2
                  {
                    OFFSET -3.41299 -1.12099 2.5732
                    CHANNELS 3 Zrotation Xrotation Yrotation
                    JOINT RightHandThumb3
                    {
                      OFFSET -2.24741 -0.804108 1.6192
                      CHANNELS 3 Zrotation Xrotation Yrotation
                      End Site
                      {
                        OFFSET -1.6527 -0.5689 1.1317
                      }
                    }
                  }
                }
              }
            }
          }
        }
      }
    }
  }
  JOINT RightUpLeg
  {
    OFFSET -9.1966 3.8861 -0.7581
    CHANNELS 3 Zrotation Xrotation Yrotation
    JOINT RightLeg
    {
      OFFSET -0.7359 -41.0265 0
      CHANNELS 3 Zrotation Xrotation Yrotation
      JOINT RightFoot
      {
        OFFSET 0 -40.2855 0
        CHANNELS 3 Zrotation Xrotation Yrotation
        JOINT RightToeBase
        {
          OFFSET 0 -5.6122 11.7359
          CHANNELS 3 Zrotation Xrotation Yrotation
          End Site
          {
            OFFSET 0 0 7.8731
          }
        }
      }
    }
  }
  JOINT LeftUpLeg
  {
    OFFSET 9.1965 3.8864 -0.7581
    CHANNELS 3 Zrotation Xrotation Yrotation
    JOINT LeftLeg
    {
      OFFSET 0.7359 -41.0268 0
      CHANNELS 3 Zrotation Xrotation Yrotation
      JOINT LeftFoot
      {
        OFFSET 0 -40.2855 0
        CHANNELS 3 Zrotation Xrotation Yrotation
        JOINT LeftToeBase
        {
          OFFSET 0 -5.6122 11.7359
          CHANNELS 3 Zrotation Xrotation Yrotation
          End Site
          {
            OFFSET 0 0 7.8731
          }
        }
      }
    }
  }
}
MOTION
Frames:	4
Frame Time:	0.0333333
11.9836 11.0322 15.2896 -2.99133 0.0123663 -157.066 -2.16001 10.5159 1.75326 -4.77596 20.9503 4.0201 -4.77597 20.9503 4.02011 6.50538 -0.924701 -0.0630138 19.4663 14.3246 0.883685 -52.3292 -28.9956 -20.5716 3.39763 7.32998 1.82936 -0.807886 -0.787571 -0.579514 -15.363 1.64563 -6.31223 -2.5758e-007 -6.34987e-007 -4.13626e-007 2.40408e-007 5.92655e-007 3.86051e-007 2.40408e-007 5.92655e-007 3.86051e-007 -2.5758e-007 -6.34987e-007 -4.13626e-007 -0.0146289 -8.76531e-005 1.97662e-006 2.40408e-007 5.92606e-007 3.86126e-007 -2.5758e-007 -6.34987e-007 -4.13626e-007 -0.0187808 -0.00117593 6.54684e-005 2.40411e-007 5.92591e-007 3.86145e-007 -2.5758e-007 -6.34987e-007 -4.13626e-007 -0.0122447 -0.00324269 0.000671397 -1.40277e-006 1.28728e-007 2.06432e-006 -2.5758e-007 -6.34987e-007 -4.13626e-007 2.40408e-007 5.92655e-007 3.86051e-007 2.40408e-007 5.92655e-007 3.86051e-007 26.4313 14.369 17.1925 -23.626 8.51512 46.4153 -5.83201 -1.68886 46.4081 -50.3857 -1.93499 7.52957 2.9477e-007 -1.20878e-006 2.49696e-006 1.99993e-007 6.23496e-008 -4.07747e-008 3.08858e-007 -8.70881e-007 4.12105e-006 2.9477e-007 -1.20878e-006 2.49696e-006 0.0150077 -9.17009e-005 2.67562e-007 -4.74487e-008 -2.70595e-007 3.34263e-006 2.9477e-007 -1.20878e-006 2.49696e-006 0.0190044 -0.00119235 -6.33571e-005 -4.73821e-008 -2.70488e-007 3.34264e-006 2.9477e-007 -1.20878e-006 2.49696e-006 0.0122909 -0.00325344 -0.000674781 -4.73783e-008 -2.70702e-007 3.34262e-006 2.9477e-007 -1.20878e-006 2.49696e-006 1.99993e-007 6.23496e-008 -4.07747e-008 3.08858e-007 -8.70881e-007 4.12105e-006 -62.0639 -31.5175 -88.4347 -146.243 15.028 -175.033 -32.7176 45.4382 23.1883 6.22989e-007 -3.71372e-006 3.82364e-007 62.0183 -31.4463 88.37 146.399 14.9613 175.088 33.018 45.2979 -23.2788 -6.95886e-007 -2.19527e-006 -1.7827e-006 
12.0336 11.0416 15.4695 -2.99133 0.0123663 -157.066 -2.16001 10.5158 1.75324 -4.77596 20.9503 4.0201 -4.77597 20.9504 4.02012 6.47797 -1.08759 -0.0536095 19.3793 14.1291 0.91404 -51.8894 -28.8004 -20.418 2.87349 7.22342 1.66223 -0.43964 -0.787831 -0.912393 -15.363 1.64562 -6.31223 -1.35092e-007 -3.39519e-007 -2.20692e-007 5.74143e-007 1.44296e-006 9.37943e-007 3.88391e-007 9.76118e-007 6.34491e-007 -1.35092e-007 -3.39519e-007 -2.20692e-007 -0.0145738 -8.94796e-005 3.28634e-007 3.8839e-007 9.76037e-007 6.34615e-007 -1.35092e-007 -3.39519e-007 -2.20692e-007 -0.0187726 -0.00117886 6.95928e-005 -1.2429e-006 5.58834e-007 2.23736e-006 -1.35092e-007 -3.39519e-007 -2.20692e-007 -0.0122439 -0.00324323 0.000671949 3.88414e-007 9.76048e-007 6.34584e-007 -1.35092e-007 -3.39519e-007 -2.20692e-007 5.74143e-007 1.44296e-006 9.37943e-007 3.88391e-007 9.76118e-007 6.34491e-007 26.3814 14.1512 17.3261 -22.9112 8.65562 46.2706 -5.98315 -1.74406 46.1536 -50.152 -1.89374 7.43217 7.98389e-007 2.54348e-007 -1.6326e-007 9.00954e-008 1.78754e-006 -9.7293e-008 7.98389e-007 2.54348e-007 -1.6326e-007 7.98389e-007 2.54348e-007 -1.6326e-007 0.0149875 -8.71002e-005 5.88925e-006 9.42961e-007 -7.47905e-007 -1.05484e-006 7.98389e-007 2.54348e-007 -1.6326e-007 0.0189778 -0.00118928 -6.42379e-005 7.98389e-007 2.54321e-007 -1.63311e-007 7.98389e-007 2.54348e-007 -1.6326e-007 0.0123013 -0.00325725 -0.000677789 7.98384e-007 2.54335e-007 -1.6331e-007 7.98389e-007 2.54348e-007 -1.6326e-007 9.00954e-008 1.78754e-006 -9.7293e-008 7.98389e-007 2.54348e-007 -1.6326e-007 -61.7511 -31.8868 -88.2205 -146.343 15.0327 -175.079 -32.3409 45.3071 23.0473 -3.37804e-008 5.7227e-006 1.96287e-006 61.7044 -31.8162 88.1573 146.5 14.9658 175.137 32.6416 45.1677 -23.1382 3.18055e-015 3.18055e-015 -7.95139e-016 
12.0836 11.0509 15.6494 -2.99133 0.0123663 -157.066 -2.16001 10.5158 1.75324 -4.77596 20.9503 4.0201 -4.77597 20.9504 4.02012 6.45057 -1.2501 -0.0441978 19.2925 13.9333 0.944086 -51.4505 -28.6039 -20.2662 2.3482 7.11815 1.49388 -0.0709248 -0.790212 -1.24572 -15.363 1.64562 -6.31223 1.32806e-007 3.40363e-007 2.20783e-007 -3.32016e-008 -8.50907e-008 -5.51957e-008 6.64032e-008 1.70181e-007 1.10391e-007 1.32806e-007 3.40363e-007 2.20783e-007 -0.0145894 -8.82903e-005 2.98856e-006 6.64031e-008 1.70167e-007 1.10413e-007 1.32806e-007 3.40363e-007 2.20783e-007 -0.0187423 -0.0011774 5.91862e-005 6.64043e-008 1.70163e-007 1.10419e-007 1.32806e-007 3.40363e-007 2.20783e-007 -0.0122262 -0.00323537 0.000678928 6.64072e-008 1.70169e-007 1.10408e-007 1.32806e-007 3.40363e-007 2.20783e-007 -3.32016e-008 -8.50907e-008 -5.51957e-008 6.64032e-008 1.70181e-007 1.10391e-007 26.332 13.9333 17.4595 -22.1936 8.7947 46.1236 -6.13462 -1.79857 45.8989 -49.9182 -1.85285 7.33459 2.78174e-007 1.85282e-006 -1.3958e-007 4.7526e-007 -1.86817e-006 3.30621e-006 7.76151e-007 2.01488e-006 -2.41742e-007 2.78174e-007 1.85282e-006 -1.3958e-007 0.0149825 -9.19109e-005 -1.25042e-006 7.76196e-007 2.01485e-006 -2.42006e-007 2.78174e-007 1.85282e-006 -1.3958e-007 0.0190113 -0.00119218 -5.16407e-005 7.76205e-007 2.01484e-006 -2.42085e-007 2.78174e-007 1.85282e-006 -1.3958e-007 0.0122557 -0.00324758 -0.000671172 7.7617e-007 2.01485e-006 -2.41982e-007 2.78174e-007 1.85282e-006 -1.3958e-007 4.7526e-007 -1.86817e-006 3.30621e-006 7.76151e-007 2.01488e-006 -2.41742e-007 -61.4354 -32.2549 -88.0029 -146.443 15.0369 -175.126 -31.9652 45.1751 22.9076 -6.23889e-006 4.38034e-006 2.28241e-006 61.387 -32.1857 87.9409 146.601 14.9705 175.185 32.2664 45.0367 -22.999 -2.5895e-006 -9.27892e-006 -1.39833e-006 
12.1337 11.0603 15.8293 -2.99133 0.0123663 -157.066 -2.16001 10.5158 1.75324 -4.77596 20.9503 4.0201 -4.77597 20.9503 4.02012 6.42315 -1.4126 -0.0348669 19.2058 13.7373 0.973819 -51.0127 -28.4062 -20.1163 1.82175 7.01425 1.32429 0.298264 -0.794758 -1.57948 -15.363 1.64561 -6.31222 1.79462e-007 4.69137e-007 3.03698e-007 -1.46833e-007 -3.8384e-007 -2.4848e-007 -8.15737e-008 -2.13244e-007 -1.38045e-007 1.79462e-007 4.69137e-007 3.03698e-007 -0.0146127 -8.96862e-005 2.83726e-006 -8.15737e-008 -2.13227e-007 -1.38072e-007 1.79462e-007 4.69137e-007 3.03698e-007 -0.0187644 -0.00117611 6.13528e-005 -8.15751e-008 -2.13222e-007 -1.38079e-007 1.79462e-007 4.69137e-007 3.03698e-007 -0.0122931 -0.00325235 0.000676731 -8.15788e-008 -2.13229e-007 -1.38065e-007 1.79462e-007 4.69137e-007 3.03698e-007 -1.46833e-007 -3.8384e-007 -2.4848e-007 -8.15737e-008 -2.13244e-007 -1.38045e-007 26.2832 13.7152 17.5926 -21.4734 8.93234 45.9744 -6.28639 -1.85245 45.6438 -49.6843 -1.81237 7.23678 3.9755e-007 1.3212e-007 -8.18482e-008 5.55398e-007 -7.82004e-008 3.20086e-006 1.98775e-007 6.606e-008 -4.09241e-008 3.9755e-007 1.3212e-007 -8.18482e-008 0.0149988 -9.32089e-005 9.40476e-007 1.98775e-007 6.60546e-008 -4.09329e-008 3.9755e-007 1.3212e-007 -8.18482e-008 0.0189935 -0.00119134 -5.3232e-005 1.98775e-007 6.60533e-008 -4.09371e-008 3.9755e-007 1.3212e-007 -8.18482e-008 0.012263 -0.00324771 -0.0006713 1.98774e-007 6.60567e-008 -4.09368e-008 3.9755e-007 1.3212e-007 -8.18482e-008 5.55398e-007 -7.82004e-008 3.20086e-006 1.98775e-007 6.606e-008 -4.09241e-008 -61.115 -32.624 -87.7811 -146.544 15.042 -175.173 -31.5906 45.0424 22.7695 -3.76752e-006 4.24608e-006 1.77592e-007 61.0666 -32.5542 87.7212 146.701 14.9749 175.234 31.8921 44.9049 -22.8612 6.66157e-007 2.18279e-006 1.8379e-006 
